HIERARCHY
ROOT Hips
{
    OFFSET 0.000000 0.000000 0.000000
    CHANNELS 6 Xposition Yposition Zposition Zrotation Xrotation Yrotation
        JOINT Chest
        {
            OFFSET -0.000000 29.765863 -0.000000
            CHANNELS 3 Zrotation Xrotation Yrotation
            JOINT Neck
            {
                OFFSET -0.000000 22.048780 0.000000
                CHANNELS 3 Zrotation Xrotation Yrotation
                JOINT Head
                {
                    OFFSET -0.000000 10.266670 0.000000
                    CHANNELS 3 Zrotation Xrotation Yrotation
                    End Site
                    {
                        OFFSET -0.000000 15.866677 0.000000
                    }
                }
            }
            JOINT LeftCollar
            {
                OFFSET -0.000000 22.048780 0.000000
                CHANNELS 3 Zrotation Xrotation Yrotation
                JOINT LeftShoulder
                {
                    OFFSET 18.666672 -0.000000 0.000000
                    CHANNELS 3 Zrotation Xrotation Yrotation
                    JOINT LeftElbow
                    {
                        OFFSET 23.656216 0.000000 0.000000
                        CHANNELS 3 Zrotation Xrotation Yrotation
                        JOINT LeftWrist
                        {
                            OFFSET 24.590921 0.000000 0.000000
                            CHANNELS 3 Zrotation Xrotation Yrotation
                            End Site
                            {
                                OFFSET 0.000000 -14.000008 0.000000
                            }
                        }
                    }
                }
            }
            JOINT RightCollar
            {
                OFFSET -0.000000 22.048780 0.000000
                CHANNELS 3 Zrotation Xrotation Yrotation
                JOINT RightShoulder
                {
                    OFFSET -18.666672 0.000000 0.000000
                    CHANNELS 3 Zrotation Xrotation Yrotation
                    JOINT RightElbow
                    {
                        OFFSET -23.656216 0.000000 0.000000
                        CHANNELS 3 Zrotation Xrotation Yrotation
                        JOINT RightWrist
                        {
                            OFFSET -24.590921 0.000000 0.000000
                            CHANNELS 3 Zrotation Xrotation Yrotation
                            End Site
                            {
                                OFFSET -0.000000 -14.000008 0.000000
                            }
                        }
                    }
                }
            }
        }
    JOINT LeftHip
    {
        OFFSET 11.200002 0.000000 0.000000
        CHANNELS 3 Zrotation Xrotation Yrotation
        JOINT LeftKnee
        {
            OFFSET -0.000000 -37.692356 0.000000
            CHANNELS 3 Zrotation Xrotation Yrotation
            JOINT LeftAnkle
            {
                OFFSET -0.000000 -39.524944 0.000000
                CHANNELS 3 Zrotation Xrotation Yrotation
                End Site
                {
                    OFFSET -0.000000 -4.666668 15.866677
                }
            }
        }
    }
    JOINT RightHip
    {
        OFFSET -11.200002 0.000000 0.000000
        CHANNELS 3 Zrotation Xrotation Yrotation
        JOINT RightKnee
        {
            OFFSET -0.000000 -37.692356 0.000000
            CHANNELS 3 Zrotation Xrotation Yrotation
            JOINT RightAnkle
            {
                OFFSET -0.000000 -39.524944 0.000000
                CHANNELS 3 Zrotation Xrotation Yrotation
                End Site
                {
                    OFFSET -0.000000 -4.666668 15.866677
                }
            }
        }
    }
}
MOTION
Frames:    13
Frame Time:    0.010000
35.323601    83.446678    -19.360743    0.717414    -1.685206    -94.851059    5.543100    4.236018    -14.015096    -13.037403    14.143905    37.809837    3.967261    -41.859398    37.752388    -6.374815    0.060639    -1.349335    -0.280041    11.370317    -72.094208    11.727235    -5.930299    -50.056934    83.784492    -8.106574    -1.531883    11.419897    -1.131086    -11.524727    28.234823    28.467045    6.123523    -25.851082    -14.833065    55.740925    -100.835785    -13.872449    -36.732323    10.037451    -24.615499    2.640343    -14.351751    34.991772    16.346825    7.892766    -11.676830    15.420355    -8.293851    -9.672890    7.201256    4.129934    27.405075    16.807940    4.229936    -20.902245    -21.181240    
35.173328    83.384682    -19.142740    0.646830    -1.733181    -94.794998    6.514858    4.071369    -14.776886    -13.491437    14.575541    38.221474    3.573903    -42.031284    37.909935    -5.765919    0.078851    -1.673066    1.076894    9.759615    -70.511841    13.043475    -6.696993    -50.581760    86.966202    -8.909102    2.257112    11.002654    -1.090746    -11.638972    27.887476    27.103119    5.495903    -28.135780    -16.067181    55.400753    -101.798599    -14.062258    -39.450680    10.036229    -24.640547    2.810139    -14.682220    35.286976    16.286812    8.190543    -11.693289    15.099903    -8.570301    -9.656401    7.037311    4.201922    27.739508    16.956337    4.227121    -21.302725    -21.251171    
35.022659    83.323181    -18.919178    0.592365    -1.799531    -94.737152    7.460850    3.940559    -15.478415    -13.900759    14.966535    38.607521    3.141642    -42.181305    38.031815    -5.104728    0.057548    -2.017614    2.301075    8.328791    -68.703178    14.405684    -7.440931    -50.823513    89.715935    -9.491966    6.324744    10.558815    -1.059540    -11.739183    27.583433    25.745325    4.941910    -30.559422    -17.296633    54.875504    -102.804314    -14.236352    -42.263130    10.043067    -24.722837    2.945661    -15.126435    35.631016    16.263296    8.523724    -11.769167    14.856639    -8.861553    -9.641388    6.865918    4.255595    28.057194    17.111267    4.229161    -21.723963    -21.358892    
34.875153    83.261993    -18.691128    0.562365    -1.882875    -94.684349    8.369308    3.832552    -16.108547    -14.264530    15.311684    38.963200    2.688165    -42.311516    38.121319    -4.391767    0.069825    -2.370751    3.383683    7.002931    -66.701698    15.611107    -8.015739    -50.869160    92.109329    -9.866420    10.480824    10.111113    -1.023371    -11.814218    27.313385    24.338501    4.424931    -33.059742    -18.470854    54.211830    -103.855301    -14.363504    -45.136101    10.078970    -24.878397    3.027922    -15.730082    36.035522    16.350655    8.863280    -11.905189    14.687406    -9.165691    -9.637748    6.696191    4.295092    28.353788    17.261843    4.235960    -22.164671    -21.503735    
34.733414    83.200470    -18.459692    0.563395    -1.979757    -94.643646    9.231168    3.736968    -16.658449    -14.584977    15.604415    39.284935    2.234649    -42.424271    38.184929    -3.632020    0.080347    -2.717229    4.332248    5.807975    -64.569481    16.756779    -8.527831    -50.694260    93.977463    -10.152040    14.453192    9.679473    -0.978143    -11.852277    27.069418    22.839476    3.917307    -35.607838    -19.584251    53.443047    -104.930473    -14.417403    -48.041733    10.165735    -25.118942    3.044826    -16.529083    36.507946    16.602648    9.184468    -12.099874    14.585274    -9.481344    -9.654710    6.536264    4.329092    28.627060    17.395136    4.247305    -22.622305    -21.680672    
34.598793    83.137680    -18.225967    0.599472    -2.085047    -94.621590    10.040293    3.645095    -17.122173    -14.866288    15.841184    39.572323    1.801976    -42.525112    38.231731    -2.832213    0.074439    -3.039494    5.155636    4.747590    -62.358559    17.794325    -8.936076    -50.336430    95.385536    -10.403035    18.073893    9.275466    -0.946895    -11.839313    26.847757    21.236162    3.386431    -38.196468    -20.643534    52.590065    -106.010292    -14.367435    -50.970921    10.324080    -25.450256    2.993303    -17.546173    37.049984    17.045853    9.470359    -12.350663    14.543432    -9.807840    -9.699666    6.392703    4.369976    28.876877    17.496681    4.263033    -23.093117    -21.880106    
34.471397    83.072479    -17.990908    0.672124    -2.192860    -94.623726    10.795000    3.552885    -17.498112    -15.118491    16.007072    39.821892    1.421039    -42.612000    38.271091    -1.999222    0.062490    -3.318515    5.864892    3.795918    -60.123707    18.668072    -9.209789    -49.836006    96.422829    -10.649849    21.185310    8.913880    -0.899910    -11.771511    26.619390    19.473663    2.828823    -40.738338    -21.602932    51.721596    -107.115578    -14.156827    -53.905785    10.571465    -25.872128    2.879241    -18.788889    37.656826    17.678164    9.714621    -12.654077    14.558988    -10.145569    -9.778122    6.269679    4.432557    29.105333    17.552420    4.282638    -23.571878    -22.088858    
34.350060    83.003677    -17.755274    0.780098    -2.296991    -94.653915    11.496226    3.458906    -17.788622    -15.350717    16.095896    40.034866    1.113617    -42.689083    38.314037    -1.143298    0.039263    -3.535099    6.479456    2.946813    -57.915882    19.383928    -9.368536    -49.203098    97.138115    -10.916663    23.658190    8.592360    -0.868289    -11.641325    26.383305    17.567747    2.234658    -43.255112    -22.504477    50.833351    -108.215759    -13.764683    -56.849030    10.920685    -26.378164    2.716353    -20.248508    38.317829    18.470722    9.922916    -13.005587    14.636000    -10.495360    -9.892779    6.168476    4.531757    29.316368    17.550346    4.305362    -24.052361    -22.291288    
34.232483    82.930122    -17.519581    0.919598    -2.391632    -94.714142    12.148807    3.365728    -17.999983    -15.574348    16.098869    40.211010    0.901887    -42.755730    38.369194    -0.277058    0.012735    -3.672681    7.019626    2.183430    -55.777378    19.917015    -9.403009    -48.464291    97.614967    -11.187371    25.425156    8.307629    -0.850514    -11.448783    26.119177    15.511405    1.605917    -45.685368    -23.322308    49.973812    -109.325005    -13.144829    -59.798653    11.378664    -26.956469    2.523707    -21.900303    39.017937    19.374081    10.112500    -13.399560    14.786880    -10.858202    -10.043558    6.087474    4.680718    29.515381    17.481871    4.330247    -24.527573    -22.470758    
34.115582    82.850853    -17.284006    1.085019    -2.471917    -94.804321    12.759540    3.277288    -18.141506    -15.798112    16.016714    40.353264    0.796005    -42.814793    38.443611    0.584935    -0.014917    -3.719790    7.506183    1.502424    -53.738544    20.272913    -9.329542    -47.632053    97.897385    -11.442871    26.470514    8.066463    -0.773710    -11.191397    25.795835    13.237449    0.972757    -47.919994    -24.025366    49.227005    -110.451431    -12.270144    -62.722183    11.945624    -27.591148    2.321983    -23.704746    39.739128    20.327406    10.309447    -13.827854    15.031543    -11.234783    -10.228057    6.022063    4.888669    29.709061    17.344046    4.355633    -24.990492    -22.611679    
33.995712    82.765129    -17.048388    1.269229    -2.534168    -94.922539    13.337549    3.199411    -18.224997    -16.030901    15.851666    40.463249    0.801662    -42.866318    38.540234    1.425755    -0.041195    -3.671852    7.956974    0.903441    -51.817696    20.458046    -9.157450    -46.722179    98.015228    -11.660391    26.844896    7.829982    -0.767921    -10.872099    25.454796    10.878335    0.315284    -50.123463    -24.729088    48.469810    -111.520622    -11.188089    -65.655457    12.615115    -28.263514    2.129634    -25.610514    40.462410    21.269238    10.544847    -14.279565    15.394418    -11.624726    -10.441456    5.965540    5.159249    29.904581    17.140184    4.379048    -25.434435    -22.701347    
33.869076    82.672485    -16.812172    1.464615    -2.576227    -95.065018    13.891983    3.136147    -18.263456    -16.277096    15.618077    40.545399    0.910298    -42.913967    38.658844    2.227640    -0.063651    -3.533407    8.386536    0.393517    -50.017605    20.479019    -8.901798    -45.750198    97.989738    -11.822392    26.649639    7.611308    -0.691808    -10.492068    25.036140    8.308839    -0.333166    -52.020020    -25.292252    47.923847    -112.610634    -9.838356    -68.541519    13.374310    -28.954420    1.959378    -27.558306    41.169033    22.147879    10.850418    -14.740384    15.899431    -12.026592    -10.677279    5.909463    5.489776    30.108879    16.880121    4.397215    -25.853575    -22.731234    
33.731968    82.572723    -16.574450    1.663615    -2.597398    -95.226662    14.431883    3.090248    -18.270340    -16.538689    15.334455    40.603664    1.106251    -42.959850    38.795067    2.973597    -0.080274    -3.317161    8.803089    -0.018521    -48.329258    20.344229    -8.576908    -44.731457    97.831085    -11.926159    26.021385    7.370651    -0.676622    -10.055423    24.597860    5.674901    -0.986076    -53.828941    -25.867907    47.406895    -113.617386    -8.340769    -71.398781    14.205241    -29.645567    1.816428    -29.485071    41.841011    22.929176    11.254362    -15.191872    16.563694    -12.437405    -10.927735    5.845383    5.871091    30.328066    16.579519    4.406080    -26.243315    -22.698229    
